<svg width="400" height="400" viewBox="0 0 400 400" fill="none" xmlns="http://www.w3.org/2000/svg">
  <rect width="400" height="400" fill="#F5F3EF"/>
  <path d="M200 180C188.954 180 180 188.954 180 200C180 211.046 188.954 220 200 220C211.046 220 220 211.046 220 200C220 188.954 211.046 180 200 180ZM200 140C166.863 140 140 166.863 140 200C140 233.137 166.863 260 200 260C233.137 260 260 233.137 260 200C260 166.863 233.137 140 200 140ZM260 190C255.523 190 252 193.523 252 198V202C252 206.477 255.523 210 260 210H300C304.477 210 308 206.477 308 202V198C308 193.523 304.477 190 300 190H260ZM100 190C95.5228 190 92 193.523 92 198V202C92 206.477 95.5228 210 100 210H140C144.477 210 148 206.477 148 202V198C148 193.523 144.477 190 140 190H100ZM210 100C210 95.5228 206.477 92 202 92H198C193.523 92 190 95.5228 190 100V140C190 144.477 193.523 148 198 148H202C206.477 148 210 144.477 210 140V100ZM210 260C210 255.523 206.477 252 202 252H198C193.523 252 190 255.523 190 260V300C190 304.477 193.523 308 198 308H202C206.477 308 210 304.477 210 300V260Z" fill="#8D6E63"/>
  <path d="M180 320H220V340C220 346.627 214.627 352 208 352H192C185.373 352 180 346.627 180 340V320Z" fill="#8D6E63"/>
  <path d="M220 90H180C180 83.3726 185.373 78 192 78H208C214.627 78 220 83.3726 220 90Z" fill="#8D6E63"/>
  <path d="M220 320H180C178.066 313.275 174.452 301.471 173 291.667C170.5 274.5 170 252 170 252H230C230 252 229.5 274.5 227 291.667C225.548 301.471 221.934 313.275 220 320Z" fill="#A1887F"/>
  <path d="M170 252H230C230 244 225 242 225 242H175C175 242 170 244 170 252Z" fill="#8D6E63"/>
  <path d="M225 142H175C175 142 170 110 170 100H230C230 110 225 142 225 142Z" fill="#A1887F"/>
  <path d="M230 100H170C170 92 175 90 175 90H225C225 90 230 92 230 100Z" fill="#8D6E63"/>
  <path d="M230 252V142" stroke="#8D6E63" stroke-width="5"/>
  <path d="M170 252V142" stroke="#8D6E63" stroke-width="5"/>
  <circle cx="200" cy="190" r="40" fill="#6D4C41" fill-opacity="0.5"/>
  <path d="M160 190C160 190 180 200 200 200C220 200 240 190 240 190" stroke="#6D4C41" stroke-width="3"/>
</svg> 